# xmcd CD database file
# Generated: man mai 19 19:38:31 2003 by KSCD
# 
# Track frame offsets:
#       150
#       22105
#       38762
#       49800
#       67867
#       85912
#       99807
#       115202
#       128837
#       151485
#       168577
#
# Disc length: 2293 seconds
#
# Revision: 1
# Processed by: cddbd v1.4PL0 Copyright (c) Steve Scherf et al.
# Submitted via: Kscd 1.3.3
#
DISCID=8608f30b
DTITLE=Sister Rain - Wild Flowers Grow
DYEAR=1900
DGENRE=
TTITLE0=Cross The Ocean
TTITLE1=Even Higher
TTITLE2=Wakenights
TTITLE3=Wild Flowers Grow
TTITLE4=You Could Be Mine
TTITLE5=Nothing Like
TTITLE6=You
TTITLE7=Another Choice
TTITLE8=Come My Way
TTITLE9=Down The Road Again
TTITLE10=|?
EXTD=1991
EXTT0=
EXTT1=
EXTT2=
EXTT3=
EXTT4=
EXTT5=
EXTT6=
EXTT7=
EXTT8=
EXTT9=
EXTT10=
PLAYORDER=
